<mxfile host="Electron" modified="2023-08-27T05:54:02.830Z" agent="Mozilla/5.0 (Windows NT 10.0; Win64; x64) AppleWebKit/537.36 (KHTML, like Gecko) draw.io/21.6.1 Chrome/112.0.5615.204 Electron/24.6.1 Safari/537.36" etag="raNprRBvfeUKI--L9Ftp" version="21.6.1" type="device" pages="2">
  <diagram id="T66xjOc-ri5lPfgRNoVJ" name="Page-1">
    <mxGraphModel dx="1701" dy="819" grid="1" gridSize="10" guides="1" tooltips="1" connect="1" arrows="1" fold="1" page="1" pageScale="1" pageWidth="850" pageHeight="1100" math="0" shadow="0">
      <root>
        <mxCell id="0" />
        <mxCell id="1" parent="0" />
        <mxCell id="wrbDPeDL_gqvLbRBTW-G-58" value="Private subnet" style="points=[[0,0],[0.25,0],[0.5,0],[0.75,0],[1,0],[1,0.25],[1,0.5],[1,0.75],[1,1],[0.75,1],[0.5,1],[0.25,1],[0,1],[0,0.75],[0,0.5],[0,0.25]];outlineConnect=0;gradientColor=none;html=1;whiteSpace=wrap;fontSize=12;fontStyle=0;container=1;pointerEvents=0;collapsible=0;recursiveResize=0;shape=mxgraph.aws4.group;grIcon=mxgraph.aws4.group_security_group;grStroke=0;strokeColor=#147EBA;fillColor=#E6F2F8;verticalAlign=top;align=left;spacingLeft=30;fontColor=#147EBA;dashed=0;" parent="1" vertex="1">
          <mxGeometry x="1000" y="760" width="200" height="130" as="geometry" />
        </mxCell>
        <mxCell id="wrbDPeDL_gqvLbRBTW-G-61" value="Amazon Aurora MySQL&lt;br&gt;(Serverless) - Primary" style="sketch=0;points=[[0,0,0],[0.25,0,0],[0.5,0,0],[0.75,0,0],[1,0,0],[0,1,0],[0.25,1,0],[0.5,1,0],[0.75,1,0],[1,1,0],[0,0.25,0],[0,0.5,0],[0,0.75,0],[1,0.25,0],[1,0.5,0],[1,0.75,0]];outlineConnect=0;fontColor=#232F3E;gradientColor=#4D72F3;gradientDirection=north;fillColor=#3334B9;strokeColor=#ffffff;dashed=0;verticalLabelPosition=bottom;verticalAlign=top;align=center;html=1;fontSize=12;fontStyle=0;aspect=fixed;shape=mxgraph.aws4.resourceIcon;resIcon=mxgraph.aws4.aurora;" parent="wrbDPeDL_gqvLbRBTW-G-58" vertex="1">
          <mxGeometry x="80" y="35" width="50" height="50" as="geometry" />
        </mxCell>
        <mxCell id="wrbDPeDL_gqvLbRBTW-G-78" value="Availability Zone 1" style="rounded=1;arcSize=10;dashed=1;strokeColor=#F59D56;fillColor=none;gradientColor=none;dashPattern=8 4;strokeWidth=2;labelPosition=center;verticalLabelPosition=top;align=center;verticalAlign=bottom;" parent="1" vertex="1">
          <mxGeometry x="980" y="420" width="240" height="490" as="geometry" />
        </mxCell>
        <mxCell id="wrbDPeDL_gqvLbRBTW-G-204" value="DevOps" style="fillColor=none;strokeColor=#5A6C86;dashed=1;verticalAlign=top;fontStyle=0;fontColor=#5A6C86;" parent="1" vertex="1">
          <mxGeometry x="630" y="440" width="150" height="390" as="geometry" />
        </mxCell>
        <mxCell id="wrbDPeDL_gqvLbRBTW-G-216" value="" style="fillColor=#EFF0F3;strokeColor=none;dashed=0;verticalAlign=top;fontStyle=0;fontColor=#232F3D;" parent="1" vertex="1">
          <mxGeometry x="640" y="633" width="130" height="187" as="geometry" />
        </mxCell>
        <mxCell id="wrbDPeDL_gqvLbRBTW-G-79" value="Availability Zone 2" style="rounded=1;arcSize=10;dashed=1;strokeColor=#F59D56;fillColor=none;gradientColor=none;dashPattern=8 4;strokeWidth=2;labelPosition=center;verticalLabelPosition=top;align=center;verticalAlign=bottom;" parent="1" vertex="1">
          <mxGeometry x="1300" y="420" width="240" height="490" as="geometry" />
        </mxCell>
        <mxCell id="wrbDPeDL_gqvLbRBTW-G-44" value="Public subnet" style="points=[[0,0],[0.25,0],[0.5,0],[0.75,0],[1,0],[1,0.25],[1,0.5],[1,0.75],[1,1],[0.75,1],[0.5,1],[0.25,1],[0,1],[0,0.75],[0,0.5],[0,0.25]];outlineConnect=0;gradientColor=none;html=1;whiteSpace=wrap;fontSize=12;fontStyle=0;container=1;pointerEvents=0;collapsible=0;recursiveResize=0;shape=mxgraph.aws4.group;grIcon=mxgraph.aws4.group_security_group;grStroke=0;strokeColor=#248814;fillColor=#E9F3E6;verticalAlign=top;align=left;spacingLeft=30;fontColor=#248814;dashed=0;" parent="1" vertex="1">
          <mxGeometry x="1000" y="440" width="200" height="120" as="geometry" />
        </mxCell>
        <mxCell id="wrbDPeDL_gqvLbRBTW-G-45" value="NAT Gateway" style="sketch=0;outlineConnect=0;fontColor=#232F3E;gradientColor=none;fillColor=#4D27AA;strokeColor=none;dashed=0;verticalLabelPosition=bottom;verticalAlign=top;align=center;html=1;fontSize=12;fontStyle=0;aspect=fixed;pointerEvents=1;shape=mxgraph.aws4.nat_gateway;" parent="wrbDPeDL_gqvLbRBTW-G-44" vertex="1">
          <mxGeometry x="70" y="40" width="50" height="50" as="geometry" />
        </mxCell>
        <mxCell id="wrbDPeDL_gqvLbRBTW-G-46" value="Public subnet" style="points=[[0,0],[0.25,0],[0.5,0],[0.75,0],[1,0],[1,0.25],[1,0.5],[1,0.75],[1,1],[0.75,1],[0.5,1],[0.25,1],[0,1],[0,0.75],[0,0.5],[0,0.25]];outlineConnect=0;gradientColor=none;html=1;whiteSpace=wrap;fontSize=12;fontStyle=0;container=1;pointerEvents=0;collapsible=0;recursiveResize=0;shape=mxgraph.aws4.group;grIcon=mxgraph.aws4.group_security_group;grStroke=0;strokeColor=#248814;fillColor=#E9F3E6;verticalAlign=top;align=left;spacingLeft=30;fontColor=#248814;dashed=0;" parent="1" vertex="1">
          <mxGeometry x="1320" y="440" width="200" height="120" as="geometry" />
        </mxCell>
        <mxCell id="wrbDPeDL_gqvLbRBTW-G-47" value="NAT Gateway" style="sketch=0;outlineConnect=0;fontColor=#232F3E;gradientColor=none;fillColor=#4D27AA;strokeColor=none;dashed=0;verticalLabelPosition=bottom;verticalAlign=top;align=center;html=1;fontSize=12;fontStyle=0;aspect=fixed;pointerEvents=1;shape=mxgraph.aws4.nat_gateway;" parent="wrbDPeDL_gqvLbRBTW-G-46" vertex="1">
          <mxGeometry x="75" y="35" width="50" height="50" as="geometry" />
        </mxCell>
        <mxCell id="wrbDPeDL_gqvLbRBTW-G-48" value="Private subnet" style="points=[[0,0],[0.25,0],[0.5,0],[0.75,0],[1,0],[1,0.25],[1,0.5],[1,0.75],[1,1],[0.75,1],[0.5,1],[0.25,1],[0,1],[0,0.75],[0,0.5],[0,0.25]];outlineConnect=0;gradientColor=none;html=1;whiteSpace=wrap;fontSize=12;fontStyle=0;container=1;pointerEvents=0;collapsible=0;recursiveResize=0;shape=mxgraph.aws4.group;grIcon=mxgraph.aws4.group_security_group;grStroke=0;strokeColor=#147EBA;fillColor=#E6F2F8;verticalAlign=top;align=left;spacingLeft=30;fontColor=#147EBA;dashed=0;" parent="1" vertex="1">
          <mxGeometry x="1000" y="570" width="200" height="180" as="geometry" />
        </mxCell>
        <mxCell id="wrbDPeDL_gqvLbRBTW-G-50" value="Private subnet" style="points=[[0,0],[0.25,0],[0.5,0],[0.75,0],[1,0],[1,0.25],[1,0.5],[1,0.75],[1,1],[0.75,1],[0.5,1],[0.25,1],[0,1],[0,0.75],[0,0.5],[0,0.25]];outlineConnect=0;gradientColor=none;html=1;whiteSpace=wrap;fontSize=12;fontStyle=0;container=1;pointerEvents=0;collapsible=0;recursiveResize=0;shape=mxgraph.aws4.group;grIcon=mxgraph.aws4.group_security_group;grStroke=0;strokeColor=#147EBA;fillColor=#E6F2F8;verticalAlign=top;align=left;spacingLeft=30;fontColor=#147EBA;dashed=0;" parent="1" vertex="1">
          <mxGeometry x="1320" y="570" width="200" height="180" as="geometry" />
        </mxCell>
        <mxCell id="wrbDPeDL_gqvLbRBTW-G-52" value="Elastic Beanstalk" style="points=[[0,0],[0.25,0],[0.5,0],[0.75,0],[1,0],[1,0.25],[1,0.5],[1,0.75],[1,1],[0.75,1],[0.5,1],[0.25,1],[0,1],[0,0.75],[0,0.5],[0,0.25]];outlineConnect=0;gradientColor=none;html=1;whiteSpace=wrap;fontSize=12;fontStyle=0;container=1;pointerEvents=0;collapsible=0;recursiveResize=0;shape=mxgraph.aws4.group;grIcon=mxgraph.aws4.group_elastic_beanstalk;strokeColor=#D86613;fillColor=none;verticalAlign=top;align=left;spacingLeft=30;fontColor=#D86613;dashed=0;" parent="1" vertex="1">
          <mxGeometry x="1020" y="600" width="480" height="140" as="geometry" />
        </mxCell>
        <mxCell id="wrbDPeDL_gqvLbRBTW-G-53" value="Auto Scaling &lt;br&gt;group" style="points=[[0,0],[0.25,0],[0.5,0],[0.75,0],[1,0],[1,0.25],[1,0.5],[1,0.75],[1,1],[0.75,1],[0.5,1],[0.25,1],[0,1],[0,0.75],[0,0.5],[0,0.25]];outlineConnect=0;gradientColor=none;html=1;whiteSpace=wrap;fontSize=12;fontStyle=0;container=1;pointerEvents=0;collapsible=0;recursiveResize=0;shape=mxgraph.aws4.groupCenter;grIcon=mxgraph.aws4.group_auto_scaling_group;grStroke=1;strokeColor=#D86613;fillColor=none;verticalAlign=top;align=center;fontColor=#D86613;dashed=1;spacingTop=25;" parent="1" vertex="1">
          <mxGeometry x="1040" y="634" width="440" height="90" as="geometry" />
        </mxCell>
        <mxCell id="wrbDPeDL_gqvLbRBTW-G-49" value="EC2 Instances" style="sketch=0;points=[[0,0,0],[0.25,0,0],[0.5,0,0],[0.75,0,0],[1,0,0],[0,1,0],[0.25,1,0],[0.5,1,0],[0.75,1,0],[1,1,0],[0,0.25,0],[0,0.5,0],[0,0.75,0],[1,0.25,0],[1,0.5,0],[1,0.75,0]];outlineConnect=0;fontColor=#232F3E;gradientColor=#F78E04;gradientDirection=north;fillColor=#D05C17;strokeColor=#ffffff;dashed=0;verticalLabelPosition=bottom;verticalAlign=top;align=center;html=1;fontSize=12;fontStyle=0;aspect=fixed;shape=mxgraph.aws4.resourceIcon;resIcon=mxgraph.aws4.ec2;" parent="wrbDPeDL_gqvLbRBTW-G-53" vertex="1">
          <mxGeometry x="30" y="11" width="50" height="50" as="geometry" />
        </mxCell>
        <mxCell id="wrbDPeDL_gqvLbRBTW-G-51" value="EC2 Instances" style="sketch=0;points=[[0,0,0],[0.25,0,0],[0.5,0,0],[0.75,0,0],[1,0,0],[0,1,0],[0.25,1,0],[0.5,1,0],[0.75,1,0],[1,1,0],[0,0.25,0],[0,0.5,0],[0,0.75,0],[1,0.25,0],[1,0.5,0],[1,0.75,0]];outlineConnect=0;fontColor=#232F3E;gradientColor=#F78E04;gradientDirection=north;fillColor=#D05C17;strokeColor=#ffffff;dashed=0;verticalLabelPosition=bottom;verticalAlign=top;align=center;html=1;fontSize=12;fontStyle=0;aspect=fixed;shape=mxgraph.aws4.resourceIcon;resIcon=mxgraph.aws4.ec2;" parent="wrbDPeDL_gqvLbRBTW-G-53" vertex="1">
          <mxGeometry x="355" y="11" width="50" height="50" as="geometry" />
        </mxCell>
        <mxCell id="wrbDPeDL_gqvLbRBTW-G-54" value="ALB" style="sketch=0;outlineConnect=0;fontColor=#232F3E;gradientColor=none;fillColor=#4D27AA;strokeColor=default;dashed=0;verticalLabelPosition=middle;verticalAlign=middle;align=left;html=1;fontSize=12;fontStyle=0;aspect=fixed;pointerEvents=1;shape=mxgraph.aws4.application_load_balancer;fillOpacity=100;labelPosition=right;" parent="1" vertex="1">
          <mxGeometry x="1233" y="440" width="54" height="54" as="geometry" />
        </mxCell>
        <mxCell id="wrbDPeDL_gqvLbRBTW-G-59" value="Private subnet" style="points=[[0,0],[0.25,0],[0.5,0],[0.75,0],[1,0],[1,0.25],[1,0.5],[1,0.75],[1,1],[0.75,1],[0.5,1],[0.25,1],[0,1],[0,0.75],[0,0.5],[0,0.25]];outlineConnect=0;gradientColor=none;html=1;whiteSpace=wrap;fontSize=12;fontStyle=0;container=1;pointerEvents=0;collapsible=0;recursiveResize=0;shape=mxgraph.aws4.group;grIcon=mxgraph.aws4.group_security_group;grStroke=0;strokeColor=#147EBA;fillColor=#E6F2F8;verticalAlign=top;align=left;spacingLeft=30;fontColor=#147EBA;dashed=0;" parent="1" vertex="1">
          <mxGeometry x="1320" y="760" width="200" height="130" as="geometry" />
        </mxCell>
        <mxCell id="wrbDPeDL_gqvLbRBTW-G-60" value="Amazon Aurora MySQL&lt;br&gt;(Serverless) - Standby" style="sketch=0;points=[[0,0,0],[0.25,0,0],[0.5,0,0],[0.75,0,0],[1,0,0],[0,1,0],[0.25,1,0],[0.5,1,0],[0.75,1,0],[1,1,0],[0,0.25,0],[0,0.5,0],[0,0.75,0],[1,0.25,0],[1,0.5,0],[1,0.75,0]];outlineConnect=0;fontColor=#232F3E;gradientColor=#4D72F3;gradientDirection=north;fillColor=#3334B9;strokeColor=#ffffff;dashed=0;verticalLabelPosition=bottom;verticalAlign=top;align=center;html=1;fontSize=12;fontStyle=0;aspect=fixed;shape=mxgraph.aws4.resourceIcon;resIcon=mxgraph.aws4.aurora;" parent="wrbDPeDL_gqvLbRBTW-G-59" vertex="1">
          <mxGeometry x="75" y="35" width="50" height="50" as="geometry" />
        </mxCell>
        <mxCell id="wrbDPeDL_gqvLbRBTW-G-63" value="" style="sketch=0;outlineConnect=0;fontColor=#232F3E;gradientColor=none;fillColor=#2E27AD;strokeColor=none;dashed=0;verticalLabelPosition=bottom;verticalAlign=top;align=center;html=1;fontSize=12;fontStyle=0;aspect=fixed;pointerEvents=1;shape=mxgraph.aws4.rds_proxy;" parent="1" vertex="1">
          <mxGeometry x="1235" y="795" width="50" height="50" as="geometry" />
        </mxCell>
        <mxCell id="wrbDPeDL_gqvLbRBTW-G-64" value="" style="edgeStyle=orthogonalEdgeStyle;html=1;endArrow=none;elbow=vertical;startArrow=none;startFill=1;strokeColor=#545B64;rounded=0;" parent="1" source="wrbDPeDL_gqvLbRBTW-G-73" target="wrbDPeDL_gqvLbRBTW-G-63" edge="1">
          <mxGeometry width="100" relative="1" as="geometry">
            <mxPoint x="1260" y="730" as="sourcePoint" />
            <mxPoint x="1230" y="820" as="targetPoint" />
          </mxGeometry>
        </mxCell>
        <mxCell id="wrbDPeDL_gqvLbRBTW-G-66" value="" style="edgeStyle=orthogonalEdgeStyle;html=1;endArrow=block;elbow=vertical;startArrow=none;endFill=1;strokeColor=#545B64;rounded=0;entryX=0;entryY=0.5;entryDx=0;entryDy=0;entryPerimeter=0;" parent="1" source="wrbDPeDL_gqvLbRBTW-G-70" target="wrbDPeDL_gqvLbRBTW-G-60" edge="1">
          <mxGeometry width="100" relative="1" as="geometry">
            <mxPoint x="1260" y="730" as="sourcePoint" />
            <mxPoint x="1360" y="730" as="targetPoint" />
          </mxGeometry>
        </mxCell>
        <mxCell id="wrbDPeDL_gqvLbRBTW-G-67" value="" style="edgeStyle=orthogonalEdgeStyle;html=1;endArrow=block;elbow=vertical;startArrow=block;startFill=1;endFill=1;strokeColor=#545B64;rounded=0;exitX=0.5;exitY=1;exitDx=0;exitDy=0;" parent="1" source="wrbDPeDL_gqvLbRBTW-G-52" target="wrbDPeDL_gqvLbRBTW-G-63" edge="1">
          <mxGeometry width="100" relative="1" as="geometry">
            <mxPoint x="1260" y="730" as="sourcePoint" />
            <mxPoint x="1360" y="730" as="targetPoint" />
          </mxGeometry>
        </mxCell>
        <mxCell id="wrbDPeDL_gqvLbRBTW-G-70" value="" style="sketch=0;pointerEvents=1;shadow=0;dashed=0;html=1;strokeColor=none;labelPosition=center;verticalLabelPosition=bottom;verticalAlign=top;outlineConnect=0;align=center;shape=mxgraph.office.security.lock_protected;fillColor=#DA4026;" parent="1" vertex="1">
          <mxGeometry x="1320" y="810" width="15" height="20" as="geometry" />
        </mxCell>
        <mxCell id="wrbDPeDL_gqvLbRBTW-G-72" value="" style="edgeStyle=orthogonalEdgeStyle;html=1;endArrow=none;elbow=vertical;startArrow=none;endFill=1;strokeColor=#545B64;rounded=0;entryX=0;entryY=0.5;entryDx=0;entryDy=0;entryPerimeter=0;" parent="1" source="wrbDPeDL_gqvLbRBTW-G-63" target="wrbDPeDL_gqvLbRBTW-G-70" edge="1">
          <mxGeometry width="100" relative="1" as="geometry">
            <mxPoint x="1285" y="820.0999999999999" as="sourcePoint" />
            <mxPoint x="1395" y="820" as="targetPoint" />
          </mxGeometry>
        </mxCell>
        <mxCell id="wrbDPeDL_gqvLbRBTW-G-73" value="" style="sketch=0;pointerEvents=1;shadow=0;dashed=0;html=1;strokeColor=none;labelPosition=center;verticalLabelPosition=bottom;verticalAlign=top;outlineConnect=0;align=center;shape=mxgraph.office.security.lock_protected;fillColor=#DA4026;" parent="1" vertex="1">
          <mxGeometry x="1184" y="810" width="15" height="20" as="geometry" />
        </mxCell>
        <mxCell id="wrbDPeDL_gqvLbRBTW-G-74" value="" style="edgeStyle=orthogonalEdgeStyle;html=1;endArrow=none;elbow=vertical;startArrow=block;startFill=1;strokeColor=#545B64;rounded=0;" parent="1" source="wrbDPeDL_gqvLbRBTW-G-61" target="wrbDPeDL_gqvLbRBTW-G-73" edge="1">
          <mxGeometry width="100" relative="1" as="geometry">
            <mxPoint x="1130" y="820" as="sourcePoint" />
            <mxPoint x="1235" y="820.0999999999999" as="targetPoint" />
          </mxGeometry>
        </mxCell>
        <mxCell id="wrbDPeDL_gqvLbRBTW-G-75" value="" style="sketch=0;pointerEvents=1;shadow=0;dashed=0;html=1;strokeColor=none;labelPosition=center;verticalLabelPosition=bottom;verticalAlign=top;outlineConnect=0;align=center;shape=mxgraph.office.security.lock_protected;fillColor=#DA4026;" parent="1" vertex="1">
          <mxGeometry x="1265" y="756" width="15" height="20" as="geometry" />
        </mxCell>
        <mxCell id="wrbDPeDL_gqvLbRBTW-G-77" value="Secrets Manager" style="sketch=0;points=[[0,0,0],[0.25,0,0],[0.5,0,0],[0.75,0,0],[1,0,0],[0,1,0],[0.25,1,0],[0.5,1,0],[0.75,1,0],[1,1,0],[0,0.25,0],[0,0.5,0],[0,0.75,0],[1,0.25,0],[1,0.5,0],[1,0.75,0]];outlineConnect=0;fontColor=#232F3E;gradientColor=#F54749;gradientDirection=north;fillColor=#C7131F;strokeColor=#ffffff;dashed=0;verticalLabelPosition=bottom;verticalAlign=top;align=center;html=1;fontSize=12;fontStyle=0;aspect=fixed;shape=mxgraph.aws4.resourceIcon;resIcon=mxgraph.aws4.secrets_manager;" parent="1" vertex="1">
          <mxGeometry x="1674" y="907" width="46" height="46" as="geometry" />
        </mxCell>
        <mxCell id="wrbDPeDL_gqvLbRBTW-G-80" value="VPC" style="points=[[0,0],[0.25,0],[0.5,0],[0.75,0],[1,0],[1,0.25],[1,0.5],[1,0.75],[1,1],[0.75,1],[0.5,1],[0.25,1],[0,1],[0,0.75],[0,0.5],[0,0.25]];outlineConnect=0;gradientColor=none;html=1;whiteSpace=wrap;fontSize=12;fontStyle=0;container=1;pointerEvents=0;collapsible=0;recursiveResize=0;shape=mxgraph.aws4.group;grIcon=mxgraph.aws4.group_vpc;strokeColor=#248814;fillColor=none;verticalAlign=top;align=left;spacingLeft=30;fontColor=#AAB7B8;dashed=0;" parent="1" vertex="1">
          <mxGeometry x="950" y="374" width="620" height="586" as="geometry" />
        </mxCell>
        <mxCell id="wrbDPeDL_gqvLbRBTW-G-201" value="WAF" style="sketch=0;points=[[0,0,0],[0.25,0,0],[0.5,0,0],[0.75,0,0],[1,0,0],[0,1,0],[0.25,1,0],[0.5,1,0],[0.75,1,0],[1,1,0],[0,0.25,0],[0,0.5,0],[0,0.75,0],[1,0.25,0],[1,0.5,0],[1,0.75,0]];outlineConnect=0;fontColor=#232F3E;gradientColor=#F54749;gradientDirection=north;fillColor=#C7131F;strokeColor=#ffffff;dashed=0;verticalLabelPosition=middle;verticalAlign=middle;align=left;html=1;fontSize=12;fontStyle=0;aspect=fixed;shape=mxgraph.aws4.resourceIcon;resIcon=mxgraph.aws4.waf;labelPosition=right;" parent="wrbDPeDL_gqvLbRBTW-G-80" vertex="1">
          <mxGeometry x="295.5" y="111" width="30" height="30" as="geometry" />
        </mxCell>
        <mxCell id="wrbDPeDL_gqvLbRBTW-G-203" value="" style="sketch=0;pointerEvents=1;shadow=0;dashed=0;html=1;strokeColor=none;labelPosition=center;verticalLabelPosition=bottom;verticalAlign=top;outlineConnect=0;align=center;shape=mxgraph.office.security.lock_protected;fillColor=#DA4026;" parent="wrbDPeDL_gqvLbRBTW-G-80" vertex="1">
          <mxGeometry x="275" y="186" width="15" height="20" as="geometry" />
        </mxCell>
        <mxCell id="wrbDPeDL_gqvLbRBTW-G-82" value="" style="edgeStyle=orthogonalEdgeStyle;html=1;endArrow=block;elbow=vertical;startArrow=none;endFill=1;strokeColor=#545B64;rounded=0;entryX=0;entryY=0.5;entryDx=0;entryDy=0;entryPerimeter=0;" parent="1" source="wrbDPeDL_gqvLbRBTW-G-83" target="wrbDPeDL_gqvLbRBTW-G-77" edge="1">
          <mxGeometry width="100" relative="1" as="geometry">
            <mxPoint x="1240" y="610" as="sourcePoint" />
            <mxPoint x="1600" y="960" as="targetPoint" />
            <Array as="points">
              <mxPoint x="1640" y="930" />
            </Array>
          </mxGeometry>
        </mxCell>
        <mxCell id="wrbDPeDL_gqvLbRBTW-G-83" value="" style="outlineConnect=0;dashed=0;verticalLabelPosition=bottom;verticalAlign=top;align=center;html=1;shape=mxgraph.aws3.iam;fillColor=#759C3E;gradientColor=none;strokeColor=default;" parent="1" vertex="1">
          <mxGeometry x="1275" y="913" width="21" height="34" as="geometry" />
        </mxCell>
        <mxCell id="wrbDPeDL_gqvLbRBTW-G-84" value="" style="edgeStyle=orthogonalEdgeStyle;html=1;endArrow=none;elbow=vertical;startArrow=none;endFill=1;strokeColor=#545B64;rounded=0;entryX=0;entryY=0.5;entryDx=0;entryDy=0;entryPerimeter=0;" parent="1" source="wrbDPeDL_gqvLbRBTW-G-63" target="wrbDPeDL_gqvLbRBTW-G-83" edge="1">
          <mxGeometry width="100" relative="1" as="geometry">
            <mxPoint x="1260" y="844.9368270084458" as="sourcePoint" />
            <mxPoint x="1660" y="920" as="targetPoint" />
            <Array as="points">
              <mxPoint x="1260" y="930" />
              <mxPoint x="1271" y="930" />
            </Array>
          </mxGeometry>
        </mxCell>
        <mxCell id="wrbDPeDL_gqvLbRBTW-G-85" value="" style="edgeStyle=orthogonalEdgeStyle;html=1;endArrow=none;elbow=vertical;startArrow=openThin;startFill=0;strokeColor=#545B64;rounded=0;entryX=0.5;entryY=0;entryDx=0;entryDy=0;entryPerimeter=0;dashed=1;" parent="1" source="wrbDPeDL_gqvLbRBTW-G-80" target="wrbDPeDL_gqvLbRBTW-G-77" edge="1">
          <mxGeometry width="100" relative="1" as="geometry">
            <mxPoint x="1330" y="780" as="sourcePoint" />
            <mxPoint x="1430" y="780" as="targetPoint" />
            <Array as="points">
              <mxPoint x="1697" y="890" />
            </Array>
          </mxGeometry>
        </mxCell>
        <mxCell id="wrbDPeDL_gqvLbRBTW-G-86" value="VPC Endpoint" style="edgeLabel;html=1;align=center;verticalAlign=middle;resizable=0;points=[];" parent="wrbDPeDL_gqvLbRBTW-G-85" vertex="1" connectable="0">
          <mxGeometry x="0.098" y="-1" relative="1" as="geometry">
            <mxPoint x="-25" y="-13" as="offset" />
          </mxGeometry>
        </mxCell>
        <mxCell id="wrbDPeDL_gqvLbRBTW-G-87" value="Internet Gateway" style="sketch=0;outlineConnect=0;fontColor=#232F3E;gradientColor=none;fillColor=#4D27AA;strokeColor=none;dashed=0;verticalLabelPosition=middle;verticalAlign=middle;align=left;html=1;fontSize=12;fontStyle=0;aspect=fixed;pointerEvents=1;shape=mxgraph.aws4.internet_gateway;labelPosition=right;" parent="1" vertex="1">
          <mxGeometry x="1235" y="340" width="50" height="50" as="geometry" />
        </mxCell>
        <mxCell id="wrbDPeDL_gqvLbRBTW-G-88" value="" style="sketch=0;points=[[0,0,0],[0.25,0,0],[0.5,0,0],[0.75,0,0],[1,0,0],[0,1,0],[0.25,1,0],[0.5,1,0],[0.75,1,0],[1,1,0],[0,0.25,0],[0,0.5,0],[0,0.75,0],[1,0.25,0],[1,0.5,0],[1,0.75,0]];outlineConnect=0;fontColor=#232F3E;gradientColor=#945DF2;gradientDirection=north;fillColor=#5A30B5;strokeColor=#ffffff;dashed=0;verticalLabelPosition=bottom;verticalAlign=top;align=center;html=1;fontSize=12;fontStyle=0;aspect=fixed;shape=mxgraph.aws4.resourceIcon;resIcon=mxgraph.aws4.route_53;" parent="1" vertex="1">
          <mxGeometry x="1073.5" y="136.5" width="53" height="53" as="geometry" />
        </mxCell>
        <mxCell id="wrbDPeDL_gqvLbRBTW-G-89" value="HTTPS" style="edgeStyle=orthogonalEdgeStyle;html=1;endArrow=none;elbow=vertical;startArrow=block;startFill=1;strokeColor=#545B64;rounded=0;entryX=0.5;entryY=1;entryDx=0;entryDy=0;entryPerimeter=0;" parent="1" source="wrbDPeDL_gqvLbRBTW-G-54" target="wrbDPeDL_gqvLbRBTW-G-88" edge="1">
          <mxGeometry x="0.3152" width="100" relative="1" as="geometry">
            <mxPoint x="1330" y="470" as="sourcePoint" />
            <mxPoint x="1100" y="230" as="targetPoint" />
            <Array as="points">
              <mxPoint x="1260" y="220" />
              <mxPoint x="1100" y="220" />
            </Array>
            <mxPoint as="offset" />
          </mxGeometry>
        </mxCell>
        <mxCell id="wrbDPeDL_gqvLbRBTW-G-90" value="" style="sketch=0;pointerEvents=1;shadow=0;dashed=0;html=1;strokeColor=none;labelPosition=center;verticalLabelPosition=bottom;verticalAlign=top;outlineConnect=0;align=center;shape=mxgraph.office.security.lock_protected;fillColor=#DA4026;" parent="1" vertex="1">
          <mxGeometry x="1200" y="229" width="15" height="20" as="geometry" />
        </mxCell>
        <mxCell id="wrbDPeDL_gqvLbRBTW-G-92" value="DNS/HTTPS" style="edgeStyle=orthogonalEdgeStyle;html=1;endArrow=block;elbow=vertical;startArrow=block;startFill=1;endFill=1;strokeColor=#545B64;rounded=0;entryX=0.5;entryY=0;entryDx=0;entryDy=0;entryPerimeter=0;exitX=0;exitY=0.5;exitDx=0;exitDy=0;" parent="1" source="wrbDPeDL_gqvLbRBTW-G-239" target="wrbDPeDL_gqvLbRBTW-G-88" edge="1">
          <mxGeometry width="100" relative="1" as="geometry">
            <mxPoint x="1260.095238095238" y="135" as="sourcePoint" />
            <mxPoint x="1430" y="255" as="targetPoint" />
          </mxGeometry>
        </mxCell>
        <mxCell id="wrbDPeDL_gqvLbRBTW-G-93" value="" style="sketch=0;pointerEvents=1;shadow=0;dashed=0;html=1;strokeColor=none;labelPosition=center;verticalLabelPosition=bottom;verticalAlign=top;outlineConnect=0;align=center;shape=mxgraph.office.security.lock_protected;fillColor=#DA4026;" parent="1" vertex="1">
          <mxGeometry x="1107.5" y="97" width="15" height="20" as="geometry" />
        </mxCell>
        <mxCell id="wrbDPeDL_gqvLbRBTW-G-96" value="AWS Cognito" style="sketch=0;points=[[0,0,0],[0.25,0,0],[0.5,0,0],[0.75,0,0],[1,0,0],[0,1,0],[0.25,1,0],[0.5,1,0],[0.75,1,0],[1,1,0],[0,0.25,0],[0,0.5,0],[0,0.75,0],[1,0.25,0],[1,0.5,0],[1,0.75,0]];outlineConnect=0;fontColor=#232F3E;gradientColor=#F54749;gradientDirection=north;fillColor=#C7131F;strokeColor=#ffffff;dashed=0;verticalLabelPosition=bottom;verticalAlign=top;align=center;html=1;fontSize=12;fontStyle=0;aspect=fixed;shape=mxgraph.aws4.resourceIcon;resIcon=mxgraph.aws4.cognito;" parent="1" vertex="1">
          <mxGeometry x="1000" y="290" width="50" height="50" as="geometry" />
        </mxCell>
        <mxCell id="wrbDPeDL_gqvLbRBTW-G-99" value="" style="edgeStyle=orthogonalEdgeStyle;html=1;endArrow=block;elbow=vertical;startArrow=block;endFill=1;strokeColor=#545B64;rounded=0;exitX=1;exitY=0.5;exitDx=0;exitDy=0;exitPerimeter=0;startFill=1;" parent="1" source="wrbDPeDL_gqvLbRBTW-G-96" target="wrbDPeDL_gqvLbRBTW-G-54" edge="1">
          <mxGeometry width="100" relative="1" as="geometry">
            <mxPoint x="1330" y="290" as="sourcePoint" />
            <mxPoint x="1430" y="290" as="targetPoint" />
            <Array as="points">
              <mxPoint x="1170" y="315" />
              <mxPoint x="1170" y="400" />
              <mxPoint x="1260" y="400" />
            </Array>
          </mxGeometry>
        </mxCell>
        <mxCell id="wrbDPeDL_gqvLbRBTW-G-100" value="Amazon &lt;br&gt;Pinpoint" style="sketch=0;points=[[0,0,0],[0.25,0,0],[0.5,0,0],[0.75,0,0],[1,0,0],[0,1,0],[0.25,1,0],[0.5,1,0],[0.75,1,0],[1,1,0],[0,0.25,0],[0,0.5,0],[0,0.75,0],[1,0.25,0],[1,0.5,0],[1,0.75,0]];outlineConnect=0;fontColor=#232F3E;gradientColor=#FF5252;gradientDirection=north;fillColor=#C7131F;strokeColor=#ffffff;dashed=0;verticalLabelPosition=middle;verticalAlign=middle;align=right;html=1;fontSize=12;fontStyle=0;aspect=fixed;shape=mxgraph.aws4.resourceIcon;resIcon=mxgraph.aws4.pinpoint;labelPosition=left;" parent="1" vertex="1">
          <mxGeometry x="1573" y="291" width="53" height="53" as="geometry" />
        </mxCell>
        <mxCell id="wrbDPeDL_gqvLbRBTW-G-101" value="" style="edgeStyle=orthogonalEdgeStyle;html=1;endArrow=block;elbow=vertical;startArrow=none;endFill=1;strokeColor=#545B64;rounded=0;" parent="1" target="wrbDPeDL_gqvLbRBTW-G-100" edge="1">
          <mxGeometry width="100" relative="1" as="geometry">
            <mxPoint x="1307.0476190476188" y="130" as="sourcePoint" />
            <mxPoint x="1340" y="390" as="targetPoint" />
            <Array as="points">
              <mxPoint x="1590" y="150" />
            </Array>
          </mxGeometry>
        </mxCell>
        <mxCell id="wrbDPeDL_gqvLbRBTW-G-103" value="Usage data" style="edgeLabel;html=1;align=center;verticalAlign=middle;resizable=0;points=[];" parent="wrbDPeDL_gqvLbRBTW-G-101" vertex="1" connectable="0">
          <mxGeometry x="-0.286" relative="1" as="geometry">
            <mxPoint x="-34" y="10" as="offset" />
          </mxGeometry>
        </mxCell>
        <mxCell id="wrbDPeDL_gqvLbRBTW-G-102" value="" style="edgeStyle=orthogonalEdgeStyle;html=1;endArrow=none;elbow=vertical;startArrow=block;startFill=1;strokeColor=#545B64;rounded=0;entryX=0.75;entryY=0;entryDx=0;entryDy=0;entryPerimeter=0;exitX=1;exitY=0.75;exitDx=0;exitDy=0;" parent="1" source="wrbDPeDL_gqvLbRBTW-G-239" target="wrbDPeDL_gqvLbRBTW-G-100" edge="1">
          <mxGeometry width="100" relative="1" as="geometry">
            <mxPoint x="1320" y="110" as="sourcePoint" />
            <mxPoint x="1790" y="580" as="targetPoint" />
            <Array as="points">
              <mxPoint x="1613" y="110" />
            </Array>
          </mxGeometry>
        </mxCell>
        <mxCell id="wrbDPeDL_gqvLbRBTW-G-104" value="Push &lt;br&gt;Notifiations" style="edgeLabel;html=1;align=center;verticalAlign=middle;resizable=0;points=[];" parent="wrbDPeDL_gqvLbRBTW-G-102" vertex="1" connectable="0">
          <mxGeometry x="0.3236" y="1" relative="1" as="geometry">
            <mxPoint x="36" y="69" as="offset" />
          </mxGeometry>
        </mxCell>
        <mxCell id="wrbDPeDL_gqvLbRBTW-G-105" value="Kinesis Data&lt;br&gt;Firehose" style="sketch=0;points=[[0,0,0],[0.25,0,0],[0.5,0,0],[0.75,0,0],[1,0,0],[0,1,0],[0.25,1,0],[0.5,1,0],[0.75,1,0],[1,1,0],[0,0.25,0],[0,0.5,0],[0,0.75,0],[1,0.25,0],[1,0.5,0],[1,0.75,0]];outlineConnect=0;fontColor=#232F3E;gradientColor=#945DF2;gradientDirection=north;fillColor=#5A30B5;strokeColor=#ffffff;dashed=0;verticalLabelPosition=bottom;verticalAlign=top;align=center;html=1;fontSize=12;fontStyle=0;aspect=fixed;shape=mxgraph.aws4.resourceIcon;resIcon=mxgraph.aws4.kinesis_data_firehose;" parent="1" vertex="1">
          <mxGeometry x="1637" y="555" width="53" height="53" as="geometry" />
        </mxCell>
        <mxCell id="wrbDPeDL_gqvLbRBTW-G-107" value="" style="edgeStyle=orthogonalEdgeStyle;html=1;endArrow=block;elbow=vertical;startArrow=none;endFill=1;strokeColor=#545B64;rounded=0;" parent="1" source="wrbDPeDL_gqvLbRBTW-G-109" target="wrbDPeDL_gqvLbRBTW-G-100" edge="1">
          <mxGeometry width="100" relative="1" as="geometry">
            <mxPoint x="1490" y="510" as="sourcePoint" />
            <mxPoint x="1590" y="510" as="targetPoint" />
            <Array as="points">
              <mxPoint x="1599" y="580" />
              <mxPoint x="1599" y="580" />
            </Array>
          </mxGeometry>
        </mxCell>
        <mxCell id="wrbDPeDL_gqvLbRBTW-G-108" value="" style="edgeStyle=orthogonalEdgeStyle;html=1;endArrow=block;elbow=vertical;startArrow=none;endFill=1;strokeColor=#545B64;rounded=0;exitX=1;exitY=0.5;exitDx=0;exitDy=0;exitPerimeter=0;entryX=0.5;entryY=0;entryDx=0;entryDy=0;entryPerimeter=0;" parent="1" source="wrbDPeDL_gqvLbRBTW-G-100" target="wrbDPeDL_gqvLbRBTW-G-105" edge="1">
          <mxGeometry width="100" relative="1" as="geometry">
            <mxPoint x="1625" y="332.5000000000002" as="sourcePoint" />
            <mxPoint x="1589" y="500" as="targetPoint" />
          </mxGeometry>
        </mxCell>
        <mxCell id="wrbDPeDL_gqvLbRBTW-G-109" value="" style="outlineConnect=0;dashed=0;verticalLabelPosition=bottom;verticalAlign=top;align=center;html=1;shape=mxgraph.aws3.iam;fillColor=#759C3E;gradientColor=none;strokeColor=default;" parent="1" vertex="1">
          <mxGeometry x="1590" y="653" width="21" height="34" as="geometry" />
        </mxCell>
        <mxCell id="wrbDPeDL_gqvLbRBTW-G-110" value="" style="edgeStyle=orthogonalEdgeStyle;html=1;endArrow=none;elbow=vertical;startArrow=none;endFill=1;strokeColor=#545B64;rounded=0;" parent="1" source="wrbDPeDL_gqvLbRBTW-G-52" target="wrbDPeDL_gqvLbRBTW-G-109" edge="1">
          <mxGeometry width="100" relative="1" as="geometry">
            <mxPoint x="1499.9999999999998" y="670.0476190476188" as="sourcePoint" />
            <mxPoint x="1670.4761904761904" y="341" as="targetPoint" />
          </mxGeometry>
        </mxCell>
        <mxCell id="wrbDPeDL_gqvLbRBTW-G-111" value="" style="outlineConnect=0;dashed=0;verticalLabelPosition=bottom;verticalAlign=top;align=center;html=1;shape=mxgraph.aws3.iam;fillColor=#759C3E;gradientColor=none;strokeColor=default;" parent="1" vertex="1">
          <mxGeometry x="1669" y="430" width="21" height="30" as="geometry" />
        </mxCell>
        <mxCell id="wrbDPeDL_gqvLbRBTW-G-185" value="" style="edgeStyle=orthogonalEdgeStyle;html=1;endArrow=block;elbow=vertical;startArrow=none;endFill=1;strokeColor=#545B64;rounded=0;exitX=1;exitY=0.5;exitDx=0;exitDy=0;exitPerimeter=0;" parent="1" source="wrbDPeDL_gqvLbRBTW-G-105" edge="1">
          <mxGeometry width="100" relative="1" as="geometry">
            <mxPoint x="1430" y="690" as="sourcePoint" />
            <mxPoint x="1750.0034993163172" y="581.5714285714287" as="targetPoint" />
          </mxGeometry>
        </mxCell>
        <mxCell id="wrbDPeDL_gqvLbRBTW-G-186" value="Amazon &lt;br&gt;QuickSight" style="sketch=0;points=[[0,0,0],[0.25,0,0],[0.5,0,0],[0.75,0,0],[1,0,0],[0,1,0],[0.25,1,0],[0.5,1,0],[0.75,1,0],[1,1,0],[0,0.25,0],[0,0.5,0],[0,0.75,0],[1,0.25,0],[1,0.5,0],[1,0.75,0]];outlineConnect=0;fontColor=#232F3E;gradientColor=#945DF2;gradientDirection=north;fillColor=#5A30B5;strokeColor=#ffffff;dashed=0;verticalLabelPosition=bottom;verticalAlign=top;align=center;html=1;fontSize=12;fontStyle=0;aspect=fixed;shape=mxgraph.aws4.resourceIcon;resIcon=mxgraph.aws4.quicksight;" parent="1" vertex="1">
          <mxGeometry x="1860" y="559" width="50" height="50" as="geometry" />
        </mxCell>
        <mxCell id="wrbDPeDL_gqvLbRBTW-G-188" value="Glacier" style="sketch=0;points=[[0,0,0],[0.25,0,0],[0.5,0,0],[0.75,0,0],[1,0,0],[0,1,0],[0.25,1,0],[0.5,1,0],[0.75,1,0],[1,1,0],[0,0.25,0],[0,0.5,0],[0,0.75,0],[1,0.25,0],[1,0.5,0],[1,0.75,0]];outlineConnect=0;fontColor=#232F3E;gradientColor=#60A337;gradientDirection=north;fillColor=#277116;strokeColor=#ffffff;dashed=0;verticalLabelPosition=bottom;verticalAlign=top;align=center;html=1;fontSize=12;fontStyle=0;aspect=fixed;shape=mxgraph.aws4.resourceIcon;resIcon=mxgraph.aws4.glacier;" parent="1" vertex="1">
          <mxGeometry x="1750" y="706" width="54" height="54" as="geometry" />
        </mxCell>
        <mxCell id="wrbDPeDL_gqvLbRBTW-G-189" value="Amazon S3" style="sketch=0;points=[[0,0,0],[0.25,0,0],[0.5,0,0],[0.75,0,0],[1,0,0],[0,1,0],[0.25,1,0],[0.5,1,0],[0.75,1,0],[1,1,0],[0,0.25,0],[0,0.5,0],[0,0.75,0],[1,0.25,0],[1,0.5,0],[1,0.75,0]];outlineConnect=0;fontColor=#232F3E;gradientColor=#60A337;gradientDirection=north;fillColor=#277116;strokeColor=#ffffff;dashed=0;verticalLabelPosition=top;verticalAlign=bottom;align=center;html=1;fontSize=12;fontStyle=0;aspect=fixed;shape=mxgraph.aws4.resourceIcon;resIcon=mxgraph.aws4.s3;labelPosition=center;" parent="1" vertex="1">
          <mxGeometry x="1750" y="556.25" width="53.75" height="53.75" as="geometry" />
        </mxCell>
        <mxCell id="wrbDPeDL_gqvLbRBTW-G-190" value="" style="edgeStyle=orthogonalEdgeStyle;html=1;endArrow=block;elbow=vertical;startArrow=none;endFill=1;strokeColor=#545B64;rounded=0;exitX=1;exitY=0.5;exitDx=0;exitDy=0;exitPerimeter=0;entryX=0;entryY=0.5;entryDx=0;entryDy=0;entryPerimeter=0;" parent="1" source="wrbDPeDL_gqvLbRBTW-G-189" target="wrbDPeDL_gqvLbRBTW-G-186" edge="1">
          <mxGeometry width="100" relative="1" as="geometry">
            <mxPoint x="1430" y="640" as="sourcePoint" />
            <mxPoint x="1530" y="640" as="targetPoint" />
          </mxGeometry>
        </mxCell>
        <mxCell id="wrbDPeDL_gqvLbRBTW-G-191" value="" style="edgeStyle=orthogonalEdgeStyle;html=1;endArrow=block;elbow=vertical;startArrow=none;endFill=1;strokeColor=#545B64;rounded=0;entryX=0.5;entryY=0;entryDx=0;entryDy=0;entryPerimeter=0;exitX=0.5;exitY=1;exitDx=0;exitDy=0;exitPerimeter=0;" parent="1" source="wrbDPeDL_gqvLbRBTW-G-189" target="wrbDPeDL_gqvLbRBTW-G-188" edge="1">
          <mxGeometry width="100" relative="1" as="geometry">
            <mxPoint x="1430" y="640" as="sourcePoint" />
            <mxPoint x="1530" y="640" as="targetPoint" />
          </mxGeometry>
        </mxCell>
        <mxCell id="wrbDPeDL_gqvLbRBTW-G-192" value="Archive Inactive objects&lt;br&gt;greater than 6 months" style="edgeLabel;html=1;align=center;verticalAlign=middle;resizable=0;points=[];" parent="wrbDPeDL_gqvLbRBTW-G-191" vertex="1" connectable="0">
          <mxGeometry x="-0.2584" y="-2" relative="1" as="geometry">
            <mxPoint x="2" y="15" as="offset" />
          </mxGeometry>
        </mxCell>
        <mxCell id="wrbDPeDL_gqvLbRBTW-G-202" value="HTTPS" style="edgeStyle=orthogonalEdgeStyle;html=1;endArrow=block;elbow=vertical;startArrow=none;endFill=1;strokeColor=#545B64;rounded=0;exitX=0.5;exitY=1;exitDx=0;exitDy=0;exitPerimeter=0;entryX=0.5;entryY=0;entryDx=0;entryDy=0;" parent="1" source="wrbDPeDL_gqvLbRBTW-G-201" target="wrbDPeDL_gqvLbRBTW-G-53" edge="1">
          <mxGeometry width="100" relative="1" as="geometry">
            <mxPoint x="1260" y="650" as="sourcePoint" />
            <mxPoint x="1360" y="650" as="targetPoint" />
          </mxGeometry>
        </mxCell>
        <mxCell id="wrbDPeDL_gqvLbRBTW-G-205" value="Elastic Container &lt;br&gt;Registry" style="sketch=0;points=[[0,0,0],[0.25,0,0],[0.5,0,0],[0.75,0,0],[1,0,0],[0,1,0],[0.25,1,0],[0.5,1,0],[0.75,1,0],[1,1,0],[0,0.25,0],[0,0.5,0],[0,0.75,0],[1,0.25,0],[1,0.5,0],[1,0.75,0]];outlineConnect=0;fontColor=#232F3E;gradientColor=#F78E04;gradientDirection=north;fillColor=#D05C17;strokeColor=#ffffff;dashed=0;verticalLabelPosition=bottom;verticalAlign=top;align=center;html=1;fontSize=12;fontStyle=0;aspect=fixed;shape=mxgraph.aws4.resourceIcon;resIcon=mxgraph.aws4.ecr;" parent="1" vertex="1">
          <mxGeometry x="820" y="647" width="53" height="53" as="geometry" />
        </mxCell>
        <mxCell id="wrbDPeDL_gqvLbRBTW-G-206" value="" style="edgeStyle=orthogonalEdgeStyle;html=1;endArrow=block;elbow=vertical;startArrow=none;endFill=1;strokeColor=#545B64;rounded=0;exitX=1;exitY=0.5;exitDx=0;exitDy=0;exitPerimeter=0;" parent="1" source="qA2n9UPBs2cmFuUDKbMC-14" edge="1">
          <mxGeometry width="100" relative="1" as="geometry">
            <mxPoint x="1270" y="650" as="sourcePoint" />
            <mxPoint x="1020" y="673" as="targetPoint" />
          </mxGeometry>
        </mxCell>
        <mxCell id="wrbDPeDL_gqvLbRBTW-G-208" value="" style="edgeStyle=orthogonalEdgeStyle;html=1;endArrow=block;elbow=vertical;startArrow=none;endFill=1;strokeColor=#545B64;rounded=0;exitX=0.5;exitY=0;exitDx=0;exitDy=0;exitPerimeter=0;dashed=1;" parent="1" source="wrbDPeDL_gqvLbRBTW-G-205" edge="1">
          <mxGeometry width="100" relative="1" as="geometry">
            <mxPoint x="1270" y="650" as="sourcePoint" />
            <mxPoint x="950" y="610" as="targetPoint" />
            <Array as="points">
              <mxPoint x="846" y="610" />
              <mxPoint x="950" y="610" />
            </Array>
          </mxGeometry>
        </mxCell>
        <mxCell id="wrbDPeDL_gqvLbRBTW-G-209" value="VPC Endpoint" style="edgeLabel;html=1;align=center;verticalAlign=middle;resizable=0;points=[];" parent="1" vertex="1" connectable="0">
          <mxGeometry x="890.0009523809523" y="599.9976190476191" as="geometry" />
        </mxCell>
        <mxCell id="wrbDPeDL_gqvLbRBTW-G-210" value="AWS CodeCommit" style="sketch=0;points=[[0,0,0],[0.25,0,0],[0.5,0,0],[0.75,0,0],[1,0,0],[0,1,0],[0.25,1,0],[0.5,1,0],[0.75,1,0],[1,1,0],[0,0.25,0],[0,0.5,0],[0,0.75,0],[1,0.25,0],[1,0.5,0],[1,0.75,0]];outlineConnect=0;fontColor=#232F3E;gradientColor=#4D72F3;gradientDirection=north;fillColor=#3334B9;strokeColor=#ffffff;dashed=0;verticalLabelPosition=bottom;verticalAlign=top;align=center;html=1;fontSize=12;fontStyle=0;aspect=fixed;shape=mxgraph.aws4.resourceIcon;resIcon=mxgraph.aws4.codecommit;" parent="1" vertex="1">
          <mxGeometry x="680" y="476" width="48" height="48" as="geometry" />
        </mxCell>
        <mxCell id="wrbDPeDL_gqvLbRBTW-G-211" value="AWS CodePipeline" style="sketch=0;points=[[0,0,0],[0.25,0,0],[0.5,0,0],[0.75,0,0],[1,0,0],[0,1,0],[0.25,1,0],[0.5,1,0],[0.75,1,0],[1,1,0],[0,0.25,0],[0,0.5,0],[0,0.75,0],[1,0.25,0],[1,0.5,0],[1,0.75,0]];outlineConnect=0;fontColor=#232F3E;gradientColor=#4D72F3;gradientDirection=north;fillColor=#3334B9;strokeColor=#ffffff;dashed=0;verticalLabelPosition=bottom;verticalAlign=top;align=center;html=1;fontSize=12;fontStyle=0;aspect=fixed;shape=mxgraph.aws4.resourceIcon;resIcon=mxgraph.aws4.codepipeline;" parent="1" vertex="1">
          <mxGeometry x="680" y="560" width="48" height="48" as="geometry" />
        </mxCell>
        <mxCell id="wrbDPeDL_gqvLbRBTW-G-212" value="AWS CodeBuild" style="sketch=0;points=[[0,0,0],[0.25,0,0],[0.5,0,0],[0.75,0,0],[1,0,0],[0,1,0],[0.25,1,0],[0.5,1,0],[0.75,1,0],[1,1,0],[0,0.25,0],[0,0.5,0],[0,0.75,0],[1,0.25,0],[1,0.5,0],[1,0.75,0]];outlineConnect=0;fontColor=#232F3E;gradientColor=#4D72F3;gradientDirection=north;fillColor=#3334B9;strokeColor=#ffffff;dashed=0;verticalLabelPosition=bottom;verticalAlign=top;align=center;html=1;fontSize=12;fontStyle=0;aspect=fixed;shape=mxgraph.aws4.resourceIcon;resIcon=mxgraph.aws4.codebuild;" parent="1" vertex="1">
          <mxGeometry x="680" y="649" width="50" height="50" as="geometry" />
        </mxCell>
        <mxCell id="wrbDPeDL_gqvLbRBTW-G-213" value="AWS CodeDeploy" style="sketch=0;points=[[0,0,0],[0.25,0,0],[0.5,0,0],[0.75,0,0],[1,0,0],[0,1,0],[0.25,1,0],[0.5,1,0],[0.75,1,0],[1,1,0],[0,0.25,0],[0,0.5,0],[0,0.75,0],[1,0.25,0],[1,0.5,0],[1,0.75,0]];outlineConnect=0;fontColor=#232F3E;gradientColor=#4D72F3;gradientDirection=north;fillColor=#3334B9;strokeColor=#ffffff;dashed=0;verticalLabelPosition=bottom;verticalAlign=top;align=center;html=1;fontSize=12;fontStyle=0;aspect=fixed;shape=mxgraph.aws4.resourceIcon;resIcon=mxgraph.aws4.codedeploy;" parent="1" vertex="1">
          <mxGeometry x="680" y="739" width="50" height="50" as="geometry" />
        </mxCell>
        <mxCell id="wrbDPeDL_gqvLbRBTW-G-214" value="Developers" style="sketch=0;outlineConnect=0;fontColor=#232F3E;gradientColor=none;fillColor=#232F3D;strokeColor=none;dashed=0;verticalLabelPosition=bottom;verticalAlign=top;align=center;html=1;fontSize=12;fontStyle=0;aspect=fixed;pointerEvents=1;shape=mxgraph.aws4.user;" parent="1" vertex="1">
          <mxGeometry x="520" y="475" width="50" height="50" as="geometry" />
        </mxCell>
        <mxCell id="wrbDPeDL_gqvLbRBTW-G-215" value="" style="edgeStyle=orthogonalEdgeStyle;html=1;endArrow=block;elbow=vertical;startArrow=none;endFill=1;strokeColor=#545B64;rounded=0;entryX=0;entryY=0.5;entryDx=0;entryDy=0;entryPerimeter=0;" parent="1" source="wrbDPeDL_gqvLbRBTW-G-214" target="wrbDPeDL_gqvLbRBTW-G-210" edge="1">
          <mxGeometry width="100" relative="1" as="geometry">
            <mxPoint x="890" y="410" as="sourcePoint" />
            <mxPoint x="990" y="410" as="targetPoint" />
          </mxGeometry>
        </mxCell>
        <mxCell id="wrbDPeDL_gqvLbRBTW-G-217" value="" style="edgeStyle=orthogonalEdgeStyle;html=1;endArrow=block;elbow=vertical;startArrow=none;endFill=1;strokeColor=#545B64;rounded=0;entryX=0;entryY=0.5;entryDx=0;entryDy=0;entryPerimeter=0;" parent="1" source="wrbDPeDL_gqvLbRBTW-G-212" target="wrbDPeDL_gqvLbRBTW-G-205" edge="1">
          <mxGeometry width="100" relative="1" as="geometry">
            <mxPoint x="890" y="770" as="sourcePoint" />
            <mxPoint x="990" y="770" as="targetPoint" />
          </mxGeometry>
        </mxCell>
        <mxCell id="wrbDPeDL_gqvLbRBTW-G-218" value="" style="edgeStyle=orthogonalEdgeStyle;html=1;endArrow=block;elbow=vertical;startArrow=none;endFill=1;strokeColor=#545B64;rounded=0;exitX=1;exitY=0.5;exitDx=0;exitDy=0;exitPerimeter=0;" parent="1" source="wrbDPeDL_gqvLbRBTW-G-213" edge="1">
          <mxGeometry width="100" relative="1" as="geometry">
            <mxPoint x="890" y="770" as="sourcePoint" />
            <mxPoint x="1020" y="700" as="targetPoint" />
            <Array as="points">
              <mxPoint x="940" y="764" />
              <mxPoint x="940" y="700" />
              <mxPoint x="1020" y="700" />
            </Array>
          </mxGeometry>
        </mxCell>
        <mxCell id="wrbDPeDL_gqvLbRBTW-G-231" value="Key Management&lt;br&gt;Service" style="sketch=0;points=[[0,0,0],[0.25,0,0],[0.5,0,0],[0.75,0,0],[1,0,0],[0,1,0],[0.25,1,0],[0.5,1,0],[0.75,1,0],[1,1,0],[0,0.25,0],[0,0.5,0],[0,0.75,0],[1,0.25,0],[1,0.5,0],[1,0.75,0]];outlineConnect=0;fontColor=#232F3E;gradientColor=#F54749;gradientDirection=north;fillColor=#C7131F;strokeColor=#ffffff;dashed=0;verticalLabelPosition=bottom;verticalAlign=top;align=center;html=1;fontSize=12;fontStyle=0;aspect=fixed;shape=mxgraph.aws4.resourceIcon;resIcon=mxgraph.aws4.key_management_service;" parent="1" vertex="1">
          <mxGeometry x="1670" y="787" width="48" height="48" as="geometry" />
        </mxCell>
        <mxCell id="wrbDPeDL_gqvLbRBTW-G-232" value="Certificate &lt;br&gt;Manager" style="sketch=0;points=[[0,0,0],[0.25,0,0],[0.5,0,0],[0.75,0,0],[1,0,0],[0,1,0],[0.25,1,0],[0.5,1,0],[0.75,1,0],[1,1,0],[0,0.25,0],[0,0.5,0],[0,0.75,0],[1,0.25,0],[1,0.5,0],[1,0.75,0]];outlineConnect=0;fontColor=#232F3E;gradientColor=#F54749;gradientDirection=north;fillColor=#C7131F;strokeColor=#ffffff;dashed=0;verticalLabelPosition=bottom;verticalAlign=top;align=center;html=1;fontSize=12;fontStyle=0;aspect=fixed;shape=mxgraph.aws4.resourceIcon;resIcon=mxgraph.aws4.certificate_manager_3;" parent="1" vertex="1">
          <mxGeometry x="1673" y="690" width="45" height="45" as="geometry" />
        </mxCell>
        <mxCell id="wrbDPeDL_gqvLbRBTW-G-233" value="" style="edgeStyle=orthogonalEdgeStyle;html=1;endArrow=none;elbow=vertical;startArrow=block;startFill=1;strokeColor=#545B64;rounded=0;dashed=1;entryX=0;entryY=0.5;entryDx=0;entryDy=0;entryPerimeter=0;" parent="1" target="wrbDPeDL_gqvLbRBTW-G-232" edge="1">
          <mxGeometry width="100" relative="1" as="geometry">
            <mxPoint x="1570" y="713" as="sourcePoint" />
            <mxPoint x="1320" y="670" as="targetPoint" />
          </mxGeometry>
        </mxCell>
        <mxCell id="wrbDPeDL_gqvLbRBTW-G-234" value="" style="edgeStyle=orthogonalEdgeStyle;html=1;endArrow=none;elbow=vertical;startArrow=block;startFill=1;strokeColor=#545B64;rounded=0;dashed=1;entryX=0;entryY=0.5;entryDx=0;entryDy=0;entryPerimeter=0;exitX=1;exitY=0.75;exitDx=0;exitDy=0;" parent="1" source="wrbDPeDL_gqvLbRBTW-G-80" target="wrbDPeDL_gqvLbRBTW-G-231" edge="1">
          <mxGeometry width="100" relative="1" as="geometry">
            <mxPoint x="1570" y="806" as="sourcePoint" />
            <mxPoint x="1320" y="670" as="targetPoint" />
            <Array as="points">
              <mxPoint x="1610" y="813" />
              <mxPoint x="1670" y="813" />
            </Array>
          </mxGeometry>
        </mxCell>
        <mxCell id="wrbDPeDL_gqvLbRBTW-G-236" value="VPC Endpoint" style="edgeLabel;html=1;align=center;verticalAlign=middle;resizable=0;points=[];" parent="1" vertex="1" connectable="0">
          <mxGeometry x="1626" y="794.9976190476191" as="geometry" />
        </mxCell>
        <mxCell id="wrbDPeDL_gqvLbRBTW-G-237" value="VPC Endpoint" style="edgeLabel;html=1;align=center;verticalAlign=middle;resizable=0;points=[];" parent="1" vertex="1" connectable="0">
          <mxGeometry x="1626" y="705.9976190476191" as="geometry" />
        </mxCell>
        <mxCell id="wrbDPeDL_gqvLbRBTW-G-239" value="Customers / Service Providers" style="fillColor=none;strokeColor=#5A6C86;dashed=1;verticalAlign=top;fontStyle=0;fontColor=#5A6C86;" parent="1" vertex="1">
          <mxGeometry x="1170.5" y="50" width="180" height="80" as="geometry" />
        </mxCell>
        <mxCell id="wrbDPeDL_gqvLbRBTW-G-240" value="" style="sketch=0;outlineConnect=0;fontColor=#232F3E;gradientColor=none;strokeColor=#232F3E;fillColor=#ffffff;dashed=0;verticalLabelPosition=bottom;verticalAlign=top;align=center;html=1;fontSize=12;fontStyle=0;aspect=fixed;shape=mxgraph.aws4.resourceIcon;resIcon=mxgraph.aws4.mobile_client;" parent="1" vertex="1">
          <mxGeometry x="1232.5" y="75" width="47" height="47" as="geometry" />
        </mxCell>
        <mxCell id="wrbDPeDL_gqvLbRBTW-G-242" value="Region A (Primary)" style="points=[[0,0],[0.25,0],[0.5,0],[0.75,0],[1,0],[1,0.25],[1,0.5],[1,0.75],[1,1],[0.75,1],[0.5,1],[0.25,1],[0,1],[0,0.75],[0,0.5],[0,0.25]];outlineConnect=0;gradientColor=none;html=1;whiteSpace=wrap;fontSize=12;fontStyle=0;container=1;pointerEvents=0;collapsible=0;recursiveResize=0;shape=mxgraph.aws4.group;grIcon=mxgraph.aws4.group_region;strokeColor=#147EBA;fillColor=none;verticalAlign=top;align=left;spacingLeft=30;fontColor=#147EBA;dashed=1;" parent="1" vertex="1">
          <mxGeometry x="598" y="260" width="1342" height="730" as="geometry" />
        </mxCell>
        <mxCell id="qA2n9UPBs2cmFuUDKbMC-2" value="Region B (Warm Standby)" style="points=[[0,0],[0.25,0],[0.5,0],[0.75,0],[1,0],[1,0.25],[1,0.5],[1,0.75],[1,1],[0.75,1],[0.5,1],[0.25,1],[0,1],[0,0.75],[0,0.5],[0,0.25]];outlineConnect=0;gradientColor=none;html=1;whiteSpace=wrap;fontSize=12;fontStyle=0;container=1;pointerEvents=0;collapsible=0;recursiveResize=0;shape=mxgraph.aws4.group;grIcon=mxgraph.aws4.group_region;strokeColor=#147EBA;fillColor=none;verticalAlign=top;align=left;spacingLeft=30;fontColor=#147EBA;dashed=1;" parent="1" vertex="1">
          <mxGeometry x="600" y="50" width="400" height="190" as="geometry" />
        </mxCell>
        <mxCell id="qA2n9UPBs2cmFuUDKbMC-5" value="VPC" style="points=[[0,0],[0.25,0],[0.5,0],[0.75,0],[1,0],[1,0.25],[1,0.5],[1,0.75],[1,1],[0.75,1],[0.5,1],[0.25,1],[0,1],[0,0.75],[0,0.5],[0,0.25]];outlineConnect=0;gradientColor=none;html=1;whiteSpace=wrap;fontSize=12;fontStyle=0;container=1;pointerEvents=0;collapsible=0;recursiveResize=0;shape=mxgraph.aws4.group;grIcon=mxgraph.aws4.group_vpc;strokeColor=#248814;fillColor=none;verticalAlign=top;align=left;spacingLeft=30;fontColor=#AAB7B8;dashed=0;" parent="qA2n9UPBs2cmFuUDKbMC-2" vertex="1">
          <mxGeometry x="160" y="40" width="220" height="130" as="geometry" />
        </mxCell>
        <mxCell id="qA2n9UPBs2cmFuUDKbMC-3" value="Elastic &lt;br&gt;Beanstalk" style="sketch=0;points=[[0,0,0],[0.25,0,0],[0.5,0,0],[0.75,0,0],[1,0,0],[0,1,0],[0.25,1,0],[0.5,1,0],[0.75,1,0],[1,1,0],[0,0.25,0],[0,0.5,0],[0,0.75,0],[1,0.25,0],[1,0.5,0],[1,0.75,0]];outlineConnect=0;fontColor=#232F3E;gradientColor=#F78E04;gradientDirection=north;fillColor=#D05C17;strokeColor=#ffffff;dashed=0;verticalLabelPosition=bottom;verticalAlign=top;align=center;html=1;fontSize=12;fontStyle=0;aspect=fixed;shape=mxgraph.aws4.resourceIcon;resIcon=mxgraph.aws4.elastic_beanstalk;" parent="qA2n9UPBs2cmFuUDKbMC-5" vertex="1">
          <mxGeometry x="140" y="35" width="40" height="40" as="geometry" />
        </mxCell>
        <mxCell id="qA2n9UPBs2cmFuUDKbMC-4" value="Amazon Aurora &lt;br&gt;MySQL&lt;br&gt;" style="sketch=0;points=[[0,0,0],[0.25,0,0],[0.5,0,0],[0.75,0,0],[1,0,0],[0,1,0],[0.25,1,0],[0.5,1,0],[0.75,1,0],[1,1,0],[0,0.25,0],[0,0.5,0],[0,0.75,0],[1,0.25,0],[1,0.5,0],[1,0.75,0]];outlineConnect=0;fontColor=#232F3E;gradientColor=#4D72F3;gradientDirection=north;fillColor=#3334B9;strokeColor=#ffffff;dashed=0;verticalLabelPosition=bottom;verticalAlign=top;align=center;html=1;fontSize=12;fontStyle=0;aspect=fixed;shape=mxgraph.aws4.resourceIcon;resIcon=mxgraph.aws4.aurora;" parent="qA2n9UPBs2cmFuUDKbMC-5" vertex="1">
          <mxGeometry x="40" y="35" width="40" height="40" as="geometry" />
        </mxCell>
        <mxCell id="qA2n9UPBs2cmFuUDKbMC-8" value="Other required &#xa;services" style="fillColor=#EFF0F3;strokeColor=none;dashed=0;verticalAlign=middle;fontStyle=0;fontColor=#232F3D;" parent="qA2n9UPBs2cmFuUDKbMC-2" vertex="1">
          <mxGeometry x="17" y="60" width="130" height="90" as="geometry" />
        </mxCell>
        <mxCell id="qA2n9UPBs2cmFuUDKbMC-7" value="" style="edgeStyle=orthogonalEdgeStyle;html=1;endArrow=none;elbow=vertical;startArrow=block;startFill=1;strokeColor=#545B64;rounded=0;dashed=1;entryX=0;entryY=0.5;entryDx=0;entryDy=0;entryPerimeter=0;" parent="1" target="wrbDPeDL_gqvLbRBTW-G-88" edge="1">
          <mxGeometry width="100" relative="1" as="geometry">
            <mxPoint x="980" y="163" as="sourcePoint" />
            <mxPoint x="1290" y="330" as="targetPoint" />
          </mxGeometry>
        </mxCell>
        <mxCell id="qA2n9UPBs2cmFuUDKbMC-14" value="" style="outlineConnect=0;dashed=0;verticalLabelPosition=bottom;verticalAlign=top;align=center;html=1;shape=mxgraph.aws3.iam;fillColor=#759C3E;gradientColor=none;strokeColor=default;" parent="1" vertex="1">
          <mxGeometry x="954" y="658" width="21" height="30" as="geometry" />
        </mxCell>
        <mxCell id="qA2n9UPBs2cmFuUDKbMC-15" value="" style="edgeStyle=orthogonalEdgeStyle;html=1;endArrow=none;elbow=vertical;startArrow=none;endFill=1;strokeColor=#545B64;rounded=0;exitX=1;exitY=0.5;exitDx=0;exitDy=0;exitPerimeter=0;" parent="1" source="wrbDPeDL_gqvLbRBTW-G-205" target="qA2n9UPBs2cmFuUDKbMC-14" edge="1">
          <mxGeometry width="100" relative="1" as="geometry">
            <mxPoint x="873" y="673.5" as="sourcePoint" />
            <mxPoint x="1020" y="673" as="targetPoint" />
          </mxGeometry>
        </mxCell>
        <mxCell id="qA2n9UPBs2cmFuUDKbMC-16" value="Pull Container&lt;br&gt;Image" style="edgeLabel;html=1;align=center;verticalAlign=middle;resizable=0;points=[];" parent="qA2n9UPBs2cmFuUDKbMC-15" vertex="1" connectable="0">
          <mxGeometry x="-0.3587" y="-2" relative="1" as="geometry">
            <mxPoint x="12" y="-20" as="offset" />
          </mxGeometry>
        </mxCell>
        <mxCell id="zxiPHPqoLnlCZJ6KUn86-1" value="" style="group" vertex="1" connectable="0" parent="1">
          <mxGeometry x="915" y="1000" width="720" height="130" as="geometry" />
        </mxCell>
        <mxCell id="wrbDPeDL_gqvLbRBTW-G-220" value="" style="fillColor=#EFF0F3;strokeColor=none;dashed=0;verticalAlign=top;fontStyle=0;fontColor=#232F3D;" parent="zxiPHPqoLnlCZJ6KUn86-1" vertex="1">
          <mxGeometry width="720" height="130" as="geometry" />
        </mxCell>
        <mxCell id="wrbDPeDL_gqvLbRBTW-G-221" value="CloudFormation" style="sketch=0;points=[[0,0,0],[0.25,0,0],[0.5,0,0],[0.75,0,0],[1,0,0],[0,1,0],[0.25,1,0],[0.5,1,0],[0.75,1,0],[1,1,0],[0,0.25,0],[0,0.5,0],[0,0.75,0],[1,0.25,0],[1,0.5,0],[1,0.75,0]];points=[[0,0,0],[0.25,0,0],[0.5,0,0],[0.75,0,0],[1,0,0],[0,1,0],[0.25,1,0],[0.5,1,0],[0.75,1,0],[1,1,0],[0,0.25,0],[0,0.5,0],[0,0.75,0],[1,0.25,0],[1,0.5,0],[1,0.75,0]];outlineConnect=0;fontColor=#232F3E;gradientColor=#F34482;gradientDirection=north;fillColor=#BC1356;strokeColor=#ffffff;dashed=0;verticalLabelPosition=bottom;verticalAlign=top;align=center;html=1;fontSize=12;fontStyle=0;aspect=fixed;shape=mxgraph.aws4.resourceIcon;resIcon=mxgraph.aws4.cloudformation;" parent="zxiPHPqoLnlCZJ6KUn86-1" vertex="1">
          <mxGeometry x="39.440000000000055" y="20" width="50" height="50" as="geometry" />
        </mxCell>
        <mxCell id="wrbDPeDL_gqvLbRBTW-G-222" value="CloudTrail" style="sketch=0;points=[[0,0,0],[0.25,0,0],[0.5,0,0],[0.75,0,0],[1,0,0],[0,1,0],[0.25,1,0],[0.5,1,0],[0.75,1,0],[1,1,0],[0,0.25,0],[0,0.5,0],[0,0.75,0],[1,0.25,0],[1,0.5,0],[1,0.75,0]];points=[[0,0,0],[0.25,0,0],[0.5,0,0],[0.75,0,0],[1,0,0],[0,1,0],[0.25,1,0],[0.5,1,0],[0.75,1,0],[1,1,0],[0,0.25,0],[0,0.5,0],[0,0.75,0],[1,0.25,0],[1,0.5,0],[1,0.75,0]];outlineConnect=0;fontColor=#232F3E;gradientColor=#F34482;gradientDirection=north;fillColor=#BC1356;strokeColor=#ffffff;dashed=0;verticalLabelPosition=bottom;verticalAlign=top;align=center;html=1;fontSize=12;fontStyle=0;aspect=fixed;shape=mxgraph.aws4.resourceIcon;resIcon=mxgraph.aws4.cloudtrail;" parent="zxiPHPqoLnlCZJ6KUn86-1" vertex="1">
          <mxGeometry x="140.44000000000005" y="20" width="50" height="50" as="geometry" />
        </mxCell>
        <mxCell id="wrbDPeDL_gqvLbRBTW-G-223" value="Trusted Advisor" style="sketch=0;points=[[0,0,0],[0.25,0,0],[0.5,0,0],[0.75,0,0],[1,0,0],[0,1,0],[0.25,1,0],[0.5,1,0],[0.75,1,0],[1,1,0],[0,0.25,0],[0,0.5,0],[0,0.75,0],[1,0.25,0],[1,0.5,0],[1,0.75,0]];points=[[0,0,0],[0.25,0,0],[0.5,0,0],[0.75,0,0],[1,0,0],[0,1,0],[0.25,1,0],[0.5,1,0],[0.75,1,0],[1,1,0],[0,0.25,0],[0,0.5,0],[0,0.75,0],[1,0.25,0],[1,0.5,0],[1,0.75,0]];outlineConnect=0;fontColor=#232F3E;gradientColor=#F34482;gradientDirection=north;fillColor=#BC1356;strokeColor=#ffffff;dashed=0;verticalLabelPosition=bottom;verticalAlign=top;align=center;html=1;fontSize=12;fontStyle=0;aspect=fixed;shape=mxgraph.aws4.resourceIcon;resIcon=mxgraph.aws4.trusted_advisor;" parent="zxiPHPqoLnlCZJ6KUn86-1" vertex="1">
          <mxGeometry x="630" y="20" width="50" height="50" as="geometry" />
        </mxCell>
        <mxCell id="wrbDPeDL_gqvLbRBTW-G-224" value="Health&lt;br&gt;Dashboard" style="sketch=0;points=[[0,0,0],[0.25,0,0],[0.5,0,0],[0.75,0,0],[1,0,0],[0,1,0],[0.25,1,0],[0.5,1,0],[0.75,1,0],[1,1,0],[0,0.25,0],[0,0.5,0],[0,0.75,0],[1,0.25,0],[1,0.5,0],[1,0.75,0]];points=[[0,0,0],[0.25,0,0],[0.5,0,0],[0.75,0,0],[1,0,0],[0,1,0],[0.25,1,0],[0.5,1,0],[0.75,1,0],[1,1,0],[0,0.25,0],[0,0.5,0],[0,0.75,0],[1,0.25,0],[1,0.5,0],[1,0.75,0]];outlineConnect=0;fontColor=#232F3E;gradientColor=#F34482;gradientDirection=north;fillColor=#BC1356;strokeColor=#ffffff;dashed=0;verticalLabelPosition=bottom;verticalAlign=top;align=center;html=1;fontSize=12;fontStyle=0;aspect=fixed;shape=mxgraph.aws4.resourceIcon;resIcon=mxgraph.aws4.personal_health_dashboard;" parent="zxiPHPqoLnlCZJ6KUn86-1" vertex="1">
          <mxGeometry x="530" y="20" width="50" height="50" as="geometry" />
        </mxCell>
        <mxCell id="wrbDPeDL_gqvLbRBTW-G-225" value="CloudWatch" style="sketch=0;points=[[0,0,0],[0.25,0,0],[0.5,0,0],[0.75,0,0],[1,0,0],[0,1,0],[0.25,1,0],[0.5,1,0],[0.75,1,0],[1,1,0],[0,0.25,0],[0,0.5,0],[0,0.75,0],[1,0.25,0],[1,0.5,0],[1,0.75,0]];points=[[0,0,0],[0.25,0,0],[0.5,0,0],[0.75,0,0],[1,0,0],[0,1,0],[0.25,1,0],[0.5,1,0],[0.75,1,0],[1,1,0],[0,0.25,0],[0,0.5,0],[0,0.75,0],[1,0.25,0],[1,0.5,0],[1,0.75,0]];outlineConnect=0;fontColor=#232F3E;gradientColor=#F34482;gradientDirection=north;fillColor=#BC1356;strokeColor=#ffffff;dashed=0;verticalLabelPosition=bottom;verticalAlign=top;align=center;html=1;fontSize=12;fontStyle=0;aspect=fixed;shape=mxgraph.aws4.resourceIcon;resIcon=mxgraph.aws4.cloudwatch_2;" parent="zxiPHPqoLnlCZJ6KUn86-1" vertex="1">
          <mxGeometry x="237.94000000000005" y="20" width="50" height="50" as="geometry" />
        </mxCell>
        <mxCell id="wrbDPeDL_gqvLbRBTW-G-226" value="IAM" style="sketch=0;points=[[0,0,0],[0.25,0,0],[0.5,0,0],[0.75,0,0],[1,0,0],[0,1,0],[0.25,1,0],[0.5,1,0],[0.75,1,0],[1,1,0],[0,0.25,0],[0,0.5,0],[0,0.75,0],[1,0.25,0],[1,0.5,0],[1,0.75,0]];outlineConnect=0;fontColor=#232F3E;gradientColor=#F54749;gradientDirection=north;fillColor=#C7131F;strokeColor=#ffffff;dashed=0;verticalLabelPosition=bottom;verticalAlign=top;align=center;html=1;fontSize=12;fontStyle=0;aspect=fixed;shape=mxgraph.aws4.resourceIcon;resIcon=mxgraph.aws4.identity_and_access_management;" parent="zxiPHPqoLnlCZJ6KUn86-1" vertex="1">
          <mxGeometry x="334.44000000000005" y="20" width="50" height="50" as="geometry" />
        </mxCell>
        <mxCell id="wrbDPeDL_gqvLbRBTW-G-228" value="AWS Cost&lt;br&gt;Management" style="sketch=0;points=[[0,0,0],[0.25,0,0],[0.5,0,0],[0.75,0,0],[1,0,0],[0,1,0],[0.25,1,0],[0.5,1,0],[0.75,1,0],[1,1,0],[0,0.25,0],[0,0.5,0],[0,0.75,0],[1,0.25,0],[1,0.5,0],[1,0.75,0]];outlineConnect=0;fontColor=#232F3E;gradientColor=#60A337;gradientDirection=north;fillColor=#277116;strokeColor=#ffffff;dashed=0;verticalLabelPosition=bottom;verticalAlign=top;align=center;html=1;fontSize=12;fontStyle=0;aspect=fixed;shape=mxgraph.aws4.resourceIcon;resIcon=mxgraph.aws4.cost_management;" parent="zxiPHPqoLnlCZJ6KUn86-1" vertex="1">
          <mxGeometry x="430" y="20" width="50" height="50" as="geometry" />
        </mxCell>
      </root>
    </mxGraphModel>
  </diagram>
  <diagram id="TZzBlEN_aYdh7_1N4pGN" name="Page-2">
    <mxGraphModel dx="1662" dy="786" grid="1" gridSize="10" guides="1" tooltips="1" connect="1" arrows="1" fold="1" page="1" pageScale="1" pageWidth="850" pageHeight="1100" math="0" shadow="0">
      <root>
        <mxCell id="0" />
        <mxCell id="1" parent="0" />
      </root>
    </mxGraphModel>
  </diagram>
</mxfile>
